{"title":"Sicario Day of the Soldado 2018 720p BluRay AAC 5.1 x264 [MW]","magnet":"magnet:?xt=urn:btih:a17f64cf53ad6e61be08eabb24d1aa6deb966346&dn=Sicario+Day+of+the+Soldado+2018+720p+BluRay+AAC+5.1+x264+%5BMW%5D&tr=udp%3A%2F%2Ftracker.leechers-paradise.org%3A6969&tr=udp%3A%2F%2Fzer0day.ch%3A1337&tr=udp%3A%2F%2Fopen.demonii.com%3A1337&tr=udp%3A%2F%2Ftracker.coppersurfer.tk%3A6969&tr=udp%3A%2F%2Fexodus.desync.com%3A6969","uploader":"MFreaky","categoryP":"video","categoryS":"hd___movies","size":"1092950707","seeders":"1","leechers":"3","description":" <a href=\"https://pichub.site/image/Em7qr\" rel=\"nofollow\" target=\"_NEW\">https://pichub.site/image/Em7qr</a> <a href=\"\nhttps://pichub.site/image/Emd5j\" rel=\"nofollow\" target=\"_NEW\">\nhttps://pichub.site/image/Emd5j</a> <a href=\"\nhttps://pichub.site/image/Emcyk\" rel=\"nofollow\" target=\"_NEW\">\nhttps://pichub.site/image/Emcyk</a> <a href=\"\nhttps://pichub.site/image/Emk0Q\" rel=\"nofollow\" target=\"_NEW\">\nhttps://pichub.site/image/Emk0Q</a> <a href=\"\nhttps://pichub.site/image/EmwFv\" rel=\"nofollow\" target=\"_NEW\">\nhttps://pichub.site/image/EmwFv</a> <a href=\"\nhttps://pichub.site/image/EmCdd\" rel=\"nofollow\" target=\"_NEW\">\nhttps://pichub.site/image/EmCdd</a>\r\n\r\nIMDB <a href=\"\nhttps://www.imdb.com/title/tt5052474/\" rel=\"nofollow\" target=\"_NEW\">\nhttps://www.imdb.com/title/tt5052474/</a>\r\n\r\nVideo\r\nFormat                                   : AVC\r\nFormat/Info                              : Advanced Video Codec\r\nFormat profile                           : High@L4.1\r\nFormat settings                          : CABAC / 4 Ref Frames\r\nFormat settings, CABAC                   : Yes\r\nFormat settings, RefFrames               : 4 frames\r\nCodec ID                                 : V_MPEG4/ISO/AVC\r\nDuration                                 : 2 h 2 min\r\nBit rate                                 : 1 000 kb/s\r\nWidth                                    : 1 280 pixels\r\nHeight                                   : 532 pixels\r\nDisplay aspect ratio                     : 2.40:1\r\nFrame rate mode                          : Constant\r\nFrame rate                               : 23.976 (24000/1001) FPS\r\nColor space                              : YUV\r\nChroma subsampling                       : 4:2:0\r\nBit depth                                : 8 bits\r\nScan type                                : Progressive\r\nBits/(Pixel*Frame)                       : 0.061\r\nStream size                              : 871 MiB (84%)\r\nWriting library                          : x264 core 155 r2901 7d0ff22\r\n\r\nAudio\r\nFormat                                   : AAC\r\nFormat/Info                              : Advanced Audio Codec\r\nFormat profile                           : HE-AAC / LC\r\nFormat settings                          : Explicit\r\nCodec ID                                 : A_AAC-2\r\nDuration                                 : 2 h 2 min\r\nBit rate                                 : 192 kb/s\r\nChannel(s)                               : 6 channels\r\nChannel positions                        : Front: L C R, Side: L R, LFE\r\nSampling rate                            : 48.0 kHz / 24.0 kHz\r\nFrame rate                               : 23.438 FPS (1024 SPF)\r\nCompression mode                         : Lossy\r\nStream size                              : 167 MiB (16%)\r\nLanguage                                 : English","last_updated":"2018-09-22T12:06:03.582Z","parsed":{"xt":"urn:btih:a17f64cf53ad6e61be08eabb24d1aa6deb966346","dn":"Sicario Day of the Soldado 2018 720p BluRay AAC 5.1 x264 [MW]","tr":["udp://exodus.desync.com:6969","udp://open.demonii.com:1337","udp://tracker.coppersurfer.tk:6969","udp://tracker.leechers-paradise.org:6969","udp://zer0day.ch:1337"],"infoHash":"a17f64cf53ad6e61be08eabb24d1aa6deb966346","infoHashBuffer":{"type":"Buffer","data":[161,127,100,207,83,173,110,97,190,8,234,187,36,209,170,109,235,150,99,70]},"name":"Sicario Day of the Soldado 2018 720p BluRay AAC 5.1 x264 [MW]","announce":["udp://exodus.desync.com:6969","udp://open.demonii.com:1337","udp://tracker.coppersurfer.tk:6969","udp://tracker.leechers-paradise.org:6969","udp://zer0day.ch:1337"],"urlList":[]}}